STARTFONT 2.1
COMMENT CVS:Version $Id 1.5
COMMENT
COMMENT (C) CENA/J.L. Vinot, 2002, CENA (Centre d'Etudes de la Navigation Aťrienne)
COMMENT This software is free software; you can redistribute it and/or modify it 
COMMENT under the terms of the GNU Lesser General Public License as published by the Free Software Foundation: 
COMMENT either version 2 of the License, or (at your option) any later version.
COMMENT 
COMMENT This software is distributed in the hope that it will be useful, but WITHOUT ANY WARRANTY; 
COMMENT without even the implied warranty of MERCHANTABILITY or FITNESS FOR A PARTICULAR PURPOSE.  
COMMENT See the GNU Lesser General Public License for more details.
COMMENT 
COMMENT You should have received a copy of the GNU Lesser General Public License along with this software; 
COMMENT if not, write to the Free Software Foundation, Inc., 59 Temple Place - Suite 330, Boston, MA  02111-1307, USA.
COMMENT Please refer to http://www.gnu.org/copyleft/gpl.html
COMMENT 
COMMENT This font has been originally designed by CENA/France for the specific needs of Air Traffic Control. 
COMMENT For example, it must offer good legibility and avoid any confusion between character shapes. 
COMMENT CENA would like to preserve its qualities. If you have any specific need, you can modify this font, 
COMMENT but we would like you to change its name to avoid any confusion between your new font and the original one designed by CENA.
COMMENT Note however, that as implied in the LGPL licence, you must credit CENA for the original work. 
COMMENT Finally, CENA would appreciate it if you send back any enhancement or extension made to the original work. 
COMMENT This statement must be fully included with any further distribution of the font.
COMMENT 
COMMENT to contact us: email to:  pii-contact@cena.fr
COMMENT write to: CENA, 7 avenue Edouard Belin, 31400 Toulouse, France 
FONT -CenaPii-Bleriot Radar-Medium-R-Normal--14-140-75-75-P-91-ISO8859-15
SIZE 14 72 72

STARTCHAR gcid14
ENCODING 20
SWIDTH 714 0
DWIDTH 10 0
BBX 8 2 1 4
BITMAP
FF
FF
ENDCHAR
STARTCHAR gcid15
ENCODING 21
SWIDTH 785 0
DWIDTH 11 0
BBX 9 9 1 1
BITMAP
4000
E000
7000
3880
1D80
0F80
0780
0F80
1F80
ENDCHAR
STARTCHAR gcid16
ENCODING 22
SWIDTH 785 0
DWIDTH 11 0
BBX 9 9 1 0
BITMAP
1F80
0F80
0780
0F80
1D80
3880
7000
E000
4000
ENDCHAR
STARTCHAR space
ENCODING 32
SWIDTH 714 0
DWIDTH 10 0
BBX 0 0 0 0
BITMAP
ENDCHAR
STARTCHAR exclam
ENCODING 33
SWIDTH 357 0
DWIDTH 5 0
BBX 2 10 2 0
BITMAP
C0
C0
C0
C0
C0
C0
C0
00
C0
C0
ENDCHAR
STARTCHAR quotedbl
ENCODING 34
SWIDTH 357 0
DWIDTH 5 0
BBX 3 4 1 6
BITMAP
A0
A0
A0
A0
ENDCHAR
STARTCHAR numbersign
ENCODING 35
SWIDTH 928 0
DWIDTH 13 0
BBX 12 9 0 0
BITMAP
0CC0
0CC0
7FF0
1980
1980
1980
FFE0
3300
3300
ENDCHAR
STARTCHAR dollar
ENCODING 36
SWIDTH 642 0
DWIDTH 9 0
BBX 7 14 1 -2
BITMAP
10
10
7C
D4
D0
F0
7C
1E
16
96
DC
78
10
10
ENDCHAR
STARTCHAR percent
ENCODING 37
SWIDTH 928 0
DWIDTH 13 0
BBX 11 10 1 0
BITMAP
7180
D900
DB00
DA00
7600
0DC0
0B60
1B60
1360
31C0
ENDCHAR
STARTCHAR ampersand
ENCODING 38
SWIDTH 857 0
DWIDTH 12 0
BBX 10 10 1 0
BITMAP
3C00
6600
6600
7C00
3800
7CC0
CF80
C700
EF80
79C0
ENDCHAR
STARTCHAR quotesingle
ENCODING 39
SWIDTH 214 0
DWIDTH 3 0
BBX 1 4 1 6
BITMAP
80
80
80
80
ENDCHAR
STARTCHAR parenleft
ENCODING 40
SWIDTH 500 0
DWIDTH 7 0
BBX 5 14 2 -3
BITMAP
08
30
60
60
C0
C0
C0
C0
C0
C0
60
60
30
08
ENDCHAR
STARTCHAR parenright
ENCODING 41
SWIDTH 500 0
DWIDTH 7 0
BBX 5 14 0 -3
BITMAP
80
60
30
30
18
18
18
18
18
18
30
30
60
80
ENDCHAR
STARTCHAR asterisk
ENCODING 42
SWIDTH 500 0
DWIDTH 7 0
BBX 5 5 1 5
BITMAP
20
A8
70
A8
20
ENDCHAR
STARTCHAR plus
ENCODING 43
SWIDTH 714 0
DWIDTH 10 0
BBX 8 7 1 1
BITMAP
18
18
18
FF
18
18
18
ENDCHAR
STARTCHAR comma
ENCODING 44
SWIDTH 500 0
DWIDTH 7 0
BBX 3 4 1 -2
BITMAP
60
60
C0
80
ENDCHAR
STARTCHAR hyphen
ENCODING 45
SWIDTH 642 0
DWIDTH 9 0
BBX 5 2 2 2
BITMAP
F8
F8
ENDCHAR
STARTCHAR period
ENCODING 46
SWIDTH 500 0
DWIDTH 7 0
BBX 2 2 2 0
BITMAP
C0
C0
ENDCHAR
STARTCHAR slash
ENCODING 47
SWIDTH 642 0
DWIDTH 9 0
BBX 7 12 2 -1
BITMAP
06
04
0C
08
18
10
30
20
60
40
C0
80
ENDCHAR
STARTCHAR zero
ENCODING 48
SWIDTH 785 0
DWIDTH 11 0
BBX 9 10 1 0
BITMAP
1C00
7700
6300
C580
CD80
D980
D180
6300
7700
1C00
ENDCHAR
STARTCHAR one
ENCODING 49
SWIDTH 714 0
DWIDTH 10 0
BBX 6 10 1 0
BITMAP
0C
1C
3C
6C
CC
0C
0C
0C
0C
0C
ENDCHAR
STARTCHAR two
ENCODING 50
SWIDTH 785 0
DWIDTH 11 0
BBX 9 10 1 0
BITMAP
3E00
6700
C300
0300
0600
0E00
1800
3000
6000
FF80
ENDCHAR
STARTCHAR three
ENCODING 51
SWIDTH 785 0
DWIDTH 11 0
BBX 9 10 1 0
BITMAP
7F00
0600
0C00
1C00
3700
0380
0180
C180
6300
3E00
ENDCHAR
STARTCHAR four
ENCODING 52
SWIDTH 785 0
DWIDTH 11 0
BBX 9 10 1 0
BITMAP
0C00
1800
1800
3100
3300
6300
6300
FF80
0300
0300
ENDCHAR
STARTCHAR five
ENCODING 53
SWIDTH 785 0
DWIDTH 11 0
BBX 9 10 1 0
BITMAP
3F00
3000
6000
7E00
6F00
0380
0180
C180
6300
3E00
ENDCHAR
STARTCHAR six
ENCODING 54
SWIDTH 785 0
DWIDTH 11 0
BBX 9 10 1 0
BITMAP
0C00
1800
3000
6800
7F00
E380
C180
C180
E300
7E00
ENDCHAR
STARTCHAR seven
ENCODING 55
SWIDTH 714 0
DWIDTH 10 0
BBX 9 10 1 0
BITMAP
FF80
0300
0600
0600
0C00
0C00
1800
1800
3000
3000
ENDCHAR
STARTCHAR eight
ENCODING 56
SWIDTH 785 0
DWIDTH 11 0
BBX 9 10 1 0
BITMAP
3E00
6700
6300
7600
3E00
6F00
C380
C180
E380
7E00
ENDCHAR
STARTCHAR nine
ENCODING 57
SWIDTH 785 0
DWIDTH 11 0
BBX 9 10 1 0
BITMAP
3E00
6300
C180
C180
E380
7F00
0B00
0600
0C00
1800
ENDCHAR
STARTCHAR colon
ENCODING 58
SWIDTH 500 0
DWIDTH 7 0
BBX 2 7 2 0
BITMAP
C0
C0
00
00
00
C0
C0
ENDCHAR
STARTCHAR semicolon
ENCODING 59
SWIDTH 500 0
DWIDTH 7 0
BBX 3 9 1 -2
BITMAP
60
60
00
00
00
60
60
C0
80
ENDCHAR
STARTCHAR less
ENCODING 60
SWIDTH 571 0
DWIDTH 8 0
BBX 5 8 2 0
BITMAP
18
30
60
C0
C0
60
30
18
ENDCHAR
STARTCHAR equal
ENCODING 61
SWIDTH 571 0
DWIDTH 8 0
BBX 6 4 1 2
BITMAP
FC
00
00
FC
ENDCHAR
STARTCHAR greater
ENCODING 62
SWIDTH 571 0
DWIDTH 8 0
BBX 5 8 1 0
BITMAP
C0
60
30
18
18
30
60
C0
ENDCHAR
STARTCHAR question
ENCODING 63
SWIDTH 571 0
DWIDTH 8 0
BBX 7 10 1 0
BITMAP
7C
C6
86
0C
18
30
30
00
30
30
ENDCHAR
STARTCHAR at
ENCODING 64
SWIDTH 1142 0
DWIDTH 16 0
BBX 14 13 1 -3
BITMAP
0FC0
3870
6018
67CC
CCCC
D8CC
D8CC
D9CC
CFD8
6270
6000
3830
0FC0
ENDCHAR
STARTCHAR A
ENCODING 65
SWIDTH 785 0
DWIDTH 11 0
BBX 10 10 1 0
BITMAP
0800
1C00
1C00
3600
3600
6300
6300
7F80
C180
C1C0
ENDCHAR
STARTCHAR B
ENCODING 66
SWIDTH 714 0
DWIDTH 10 0
BBX 8 10 1 0
BITMAP
FC
C6
C6
CE
FC
C6
C3
C3
C7
FE
ENDCHAR
STARTCHAR C
ENCODING 67
SWIDTH 785 0
DWIDTH 11 0
BBX 9 10 1 0
BITMAP
1F00
7180
6000
C000
C000
C000
C000
6000
7180
1F00
ENDCHAR
STARTCHAR D
ENCODING 68
SWIDTH 785 0
DWIDTH 11 0
BBX 9 10 1 0
BITMAP
FC00
C700
C300
C180
C180
C180
C180
C300
C700
FC00
ENDCHAR
STARTCHAR E
ENCODING 69
SWIDTH 642 0
DWIDTH 9 0
BBX 7 10 1 0
BITMAP
FC
C0
C0
C0
FC
C0
C0
C0
C0
FE
ENDCHAR
STARTCHAR F
ENCODING 70
SWIDTH 571 0
DWIDTH 8 0
BBX 6 10 1 0
BITMAP
FC
C0
C0
C0
FC
C0
C0
C0
C0
C0
ENDCHAR
STARTCHAR G
ENCODING 71
SWIDTH 785 0
DWIDTH 11 0
BBX 9 10 1 0
BITMAP
1F00
7300
6000
C000
C000
CF80
C180
6180
7180
1F80
ENDCHAR
STARTCHAR H
ENCODING 72
SWIDTH 714 0
DWIDTH 10 0
BBX 8 10 1 0
BITMAP
C3
C3
C3
C3
FF
C3
C3
C3
C3
C3
ENDCHAR
STARTCHAR I
ENCODING 73
SWIDTH 428 0
DWIDTH 6 0
BBX 2 10 2 0
BITMAP
C0
C0
C0
C0
C0
C0
C0
C0
C0
C0
ENDCHAR
STARTCHAR J
ENCODING 74
SWIDTH 571 0
DWIDTH 8 0
BBX 6 10 0 0
BITMAP
0C
0C
0C
0C
0C
0C
0C
4C
EC
78
ENDCHAR
STARTCHAR K
ENCODING 75
SWIDTH 714 0
DWIDTH 10 0
BBX 9 10 1 0
BITMAP
C600
CC00
D800
F000
F000
F800
DC00
CE00
C700
C380
ENDCHAR
STARTCHAR L
ENCODING 76
SWIDTH 571 0
DWIDTH 8 0
BBX 6 10 1 0
BITMAP
C0
C0
C0
C0
C0
C0
C0
C0
C0
FC
ENDCHAR
STARTCHAR M
ENCODING 77
SWIDTH 857 0
DWIDTH 12 0
BBX 10 10 1 0
BITMAP
C0C0
C0C0
E1C0
E1C0
F3C0
D2C0
DEC0
CCC0
CCC0
C0C0
ENDCHAR
STARTCHAR N
ENCODING 78
SWIDTH 714 0
DWIDTH 10 0
BBX 8 10 1 0
BITMAP
C3
E3
E3
F3
D3
DB
CF
C7
C7
C3
ENDCHAR
STARTCHAR O
ENCODING 79
SWIDTH 928 0
DWIDTH 13 0
BBX 11 10 1 0
BITMAP
1F00
71C0
60C0
C060
C060
C060
C060
60C0
71C0
1F00
ENDCHAR
STARTCHAR P
ENCODING 80
SWIDTH 714 0
DWIDTH 10 0
BBX 8 10 1 0
BITMAP
FC
C6
C3
C3
C3
C6
FC
C0
C0
C0
ENDCHAR
STARTCHAR Q
ENCODING 81
SWIDTH 928 0
DWIDTH 13 0
BBX 12 10 1 0
BITMAP
1F00
71C0
60C0
C060
C060
DE60
F3E0
61C0
71E0
1F30
ENDCHAR
STARTCHAR R
ENCODING 82
SWIDTH 714 0
DWIDTH 10 0
BBX 9 10 1 0
BITMAP
FC00
C600
C600
C600
CC00
F800
DC00
CE00
C700
C380
ENDCHAR
STARTCHAR S
ENCODING 83
SWIDTH 714 0
DWIDTH 10 0
BBX 8 10 1 0
BITMAP
3C
66
60
70
3C
0E
07
C3
E7
3E
ENDCHAR
STARTCHAR T
ENCODING 84
SWIDTH 642 0
DWIDTH 9 0
BBX 8 10 0 0
BITMAP
FF
18
18
18
18
18
18
18
18
18
ENDCHAR
STARTCHAR U
ENCODING 85
SWIDTH 785 0
DWIDTH 11 0
BBX 9 10 1 0
BITMAP
C180
C180
C180
C180
C180
C180
C180
C180
6300
3E00
ENDCHAR
STARTCHAR V
ENCODING 86
SWIDTH 714 0
DWIDTH 10 0
BBX 9 10 1 0
BITMAP
C180
C180
6100
6300
7200
3600
3600
1C00
1C00
0800
ENDCHAR
STARTCHAR W
ENCODING 87
SWIDTH 1142 0
DWIDTH 16 0
BBX 15 10 1 0
BITMAP
C306
C304
C38C
638C
6788
74D8
34D0
3CF0
1870
1860
ENDCHAR
STARTCHAR X
ENCODING 88
SWIDTH 714 0
DWIDTH 10 0
BBX 9 10 1 0
BITMAP
E100
6300
3600
3C00
1C00
1E00
3600
6300
6380
C180
ENDCHAR
STARTCHAR Y
ENCODING 89
SWIDTH 642 0
DWIDTH 9 0
BBX 8 10 1 0
BITMAP
C3
C3
62
66
34
3C
18
18
18
18
ENDCHAR
STARTCHAR Z
ENCODING 90
SWIDTH 714 0
DWIDTH 10 0
BBX 8 10 2 0
BITMAP
FE
06
0C
1C
18
30
70
60
E0
FF
ENDCHAR
STARTCHAR bracketleft
ENCODING 91
SWIDTH 500 0
DWIDTH 7 0
BBX 4 14 3 -3
BITMAP
F0
C0
C0
C0
C0
C0
C0
C0
C0
C0
C0
C0
C0
F0
ENDCHAR
STARTCHAR backslash
ENCODING 92
SWIDTH 642 0
DWIDTH 9 0
BBX 7 12 2 -1
BITMAP
C0
40
60
20
30
10
18
08
0C
04
06
02
ENDCHAR
STARTCHAR bracketright
ENCODING 93
SWIDTH 500 0
DWIDTH 7 0
BBX 4 14 1 -3
BITMAP
F0
30
30
30
30
30
30
30
30
30
30
30
30
F0
ENDCHAR
STARTCHAR asciicircum
ENCODING 94
SWIDTH 642 0
DWIDTH 9 0
BBX 6 4 2 6
BITMAP
30
78
CC
84
ENDCHAR
STARTCHAR underscore
ENCODING 95
SWIDTH 714 0
DWIDTH 10 0
BBX 10 1 0 -3
BITMAP
FFC0
ENDCHAR
STARTCHAR a
ENCODING 97
SWIDTH 642 0
DWIDTH 9 0
BBX 7 7 1 0
BITMAP
7C
06
3E
E6
C6
C6
7E
ENDCHAR
STARTCHAR b
ENCODING 98
SWIDTH 642 0
DWIDTH 9 0
BBX 7 10 1 0
BITMAP
C0
C0
C0
DC
E6
C6
C6
C6
C6
FC
ENDCHAR
STARTCHAR c
ENCODING 99
SWIDTH 642 0
DWIDTH 9 0
BBX 7 7 1 0
BITMAP
7C
C6
C0
C0
C0
C6
7C
ENDCHAR
STARTCHAR d
ENCODING 100
SWIDTH 642 0
DWIDTH 9 0
BBX 7 10 1 0
BITMAP
06
06
06
7E
C6
C6
C6
C6
CE
76
ENDCHAR
STARTCHAR e
ENCODING 101
SWIDTH 642 0
DWIDTH 9 0
BBX 7 7 1 0
BITMAP
7C
C6
C6
FE
C0
C6
7C
ENDCHAR
STARTCHAR f
ENCODING 102
SWIDTH 500 0
DWIDTH 7 0
BBX 7 10 0 0
BITMAP
1E
30
30
FC
30
30
30
30
30
30
ENDCHAR
STARTCHAR g
ENCODING 103
SWIDTH 642 0
DWIDTH 9 0
BBX 7 10 1 -3
BITMAP
7E
C6
C6
C6
C6
CE
76
06
06
7C
ENDCHAR
STARTCHAR h
ENCODING 104
SWIDTH 642 0
DWIDTH 9 0
BBX 7 10 1 0
BITMAP
C0
C0
C0
DC
E6
C6
C6
C6
C6
C6
ENDCHAR
STARTCHAR i
ENCODING 105
SWIDTH 428 0
DWIDTH 6 0
BBX 2 10 2 0
BITMAP
C0
C0
00
40
C0
C0
C0
C0
C0
C0
ENDCHAR
STARTCHAR j
ENCODING 106
SWIDTH 428 0
DWIDTH 6 0
BBX 5 13 0 -3
BITMAP
18
18
00
08
18
18
18
18
18
18
18
98
70
ENDCHAR
STARTCHAR k
ENCODING 107
SWIDTH 642 0
DWIDTH 9 0
BBX 8 10 1 0
BITMAP
C0
C0
C0
C6
CC
F8
D8
CC
C6
C3
ENDCHAR
STARTCHAR l
ENCODING 108
SWIDTH 428 0
DWIDTH 6 0
BBX 5 10 1 0
BITMAP
C0
C0
C0
C0
C0
C0
C0
C0
C8
70
ENDCHAR
STARTCHAR m
ENCODING 109
SWIDTH 1000 0
DWIDTH 14 0
BBX 12 7 1 0
BITMAP
FDE0
C630
C630
C630
C630
C630
C630
ENDCHAR
STARTCHAR n
ENCODING 110
SWIDTH 642 0
DWIDTH 9 0
BBX 7 7 1 0
BITMAP
FC
C6
C6
C6
C6
C6
C6
ENDCHAR
STARTCHAR o
ENCODING 111
SWIDTH 642 0
DWIDTH 9 0
BBX 7 7 1 0
BITMAP
7C
C6
C6
C6
C6
C6
7C
ENDCHAR
STARTCHAR p
ENCODING 112
SWIDTH 642 0
DWIDTH 9 0
BBX 7 10 1 -3
BITMAP
DC
E6
C6
C6
C6
C6
FC
C0
C0
C0
ENDCHAR
STARTCHAR q
ENCODING 113
SWIDTH 642 0
DWIDTH 9 0
BBX 7 10 1 -3
BITMAP
7E
C6
C6
C6
C6
CE
76
06
06
06
ENDCHAR
STARTCHAR r
ENCODING 114
SWIDTH 428 0
DWIDTH 6 0
BBX 5 7 1 0
BITMAP
D8
E8
C0
C0
C0
C0
C0
ENDCHAR
STARTCHAR s
ENCODING 115
SWIDTH 642 0
DWIDTH 9 0
BBX 7 7 1 0
BITMAP
3C
64
70
3C
0E
C6
7C
ENDCHAR
STARTCHAR t
ENCODING 116
SWIDTH 500 0
DWIDTH 7 0
BBX 7 9 0 0
BITMAP
30
30
FC
30
30
30
30
32
1C
ENDCHAR
STARTCHAR u
ENCODING 117
SWIDTH 642 0
DWIDTH 9 0
BBX 7 7 1 0
BITMAP
C6
C6
C6
C6
C6
CE
76
ENDCHAR
STARTCHAR v
ENCODING 118
SWIDTH 571 0
DWIDTH 8 0
BBX 8 7 0 0
BITMAP
C3
C2
66
64
3C
38
18
ENDCHAR
STARTCHAR w
ENCODING 119
SWIDTH 857 0
DWIDTH 12 0
BBX 12 7 0 0
BITMAP
C630
C620
6F60
6B40
7BC0
3180
3180
ENDCHAR
STARTCHAR x
ENCODING 120
SWIDTH 571 0
DWIDTH 8 0
BBX 8 7 0 0
BITMAP
C3
66
3C
18
3C
66
C3
ENDCHAR
STARTCHAR y
ENCODING 121
SWIDTH 642 0
DWIDTH 9 0
BBX 8 10 1 -3
BITMAP
C3
C2
66
66
34
3C
18
18
30
60
ENDCHAR
STARTCHAR z
ENCODING 122
SWIDTH 571 0
DWIDTH 8 0
BBX 7 7 1 0
BITMAP
FC
0C
18
30
60
C0
FE
ENDCHAR
STARTCHAR braceleft
ENCODING 123
SWIDTH 500 0
DWIDTH 7 0
BBX 6 14 1 -3
BITMAP
1C
30
30
30
30
30
C0
30
30
30
30
30
30
1C
ENDCHAR
STARTCHAR bar
ENCODING 124
SWIDTH 500 0
DWIDTH 7 0
BBX 2 14 3 -3
BITMAP
C0
C0
C0
C0
C0
C0
C0
C0
C0
C0
C0
C0
C0
C0
ENDCHAR
STARTCHAR braceright
ENCODING 125
SWIDTH 500 0
DWIDTH 7 0
BBX 6 14 0 -3
BITMAP
E0
30
30
30
30
30
0C
30
30
30
30
30
30
E0
ENDCHAR
STARTCHAR Euro
ENCODING 164
SWIDTH 714 0
DWIDTH 10 0
BBX 9 10 1 0
BITMAP
0F00
3980
3000
FF00
6000
FE00
6000
3000
3980
0F00
ENDCHAR
STARTCHAR degree
ENCODING 176
SWIDTH 500 0
DWIDTH 7 0
BBX 5 4 1 6
BITMAP
70
D8
D8
70
ENDCHAR
STARTCHAR Agrave
ENCODING 192
SWIDTH 785 0
DWIDTH 11 0
BBX 10 13 1 0
BITMAP
1800
0C00
0000
0800
1C00
1E00
3600
3600
6300
6300
7F80
C180
C1C0
ENDCHAR
STARTCHAR Acircumflex
ENCODING 194
SWIDTH 785 0
DWIDTH 11 0
BBX 10 13 1 0
BITMAP
1C00
3600
0000
0800
1C00
1C00
3600
3600
6300
6300
7F80
C180
C1C0
ENDCHAR
STARTCHAR Ccedilla
ENCODING 199
SWIDTH 785 0
DWIDTH 11 0
BBX 9 13 1 -3
BITMAP
1F00
7180
6000
C000
C000
C000
C000
6000
7180
1F00
0F00
0100
1F00
ENDCHAR
STARTCHAR Egrave
ENCODING 200
SWIDTH 571 0
DWIDTH 8 0
BBX 7 13 1 0
BITMAP
C0
60
00
FC
C0
C0
C0
FC
C0
C0
C0
C0
FE
ENDCHAR
STARTCHAR Eacute
ENCODING 201
SWIDTH 571 0
DWIDTH 8 0
BBX 7 13 1 0
BITMAP
18
30
00
FC
C0
C0
C0
FC
C0
C0
C0
C0
FE
ENDCHAR
STARTCHAR Ecircumflex
ENCODING 202
SWIDTH 571 0
DWIDTH 8 0
BBX 7 13 1 0
BITMAP
70
D8
00
FC
C0
C0
C0
FC
C0
C0
C0
C0
FE
ENDCHAR
STARTCHAR Edieresis
ENCODING 203
SWIDTH 571 0
DWIDTH 8 0
BBX 7 13 1 0
BITMAP
D8
48
00
FC
C0
C0
C0
FC
C0
C0
C0
C0
FE
ENDCHAR
STARTCHAR Icircumflex
ENCODING 206
SWIDTH 428 0
DWIDTH 6 0
BBX 5 13 1 0
BITMAP
70
D8
00
60
60
60
60
60
60
60
60
60
60
ENDCHAR
STARTCHAR Idieresis
ENCODING 207
SWIDTH 428 0
DWIDTH 6 0
BBX 5 13 1 0
BITMAP
D8
48
00
60
60
60
60
60
60
60
60
60
60
ENDCHAR
STARTCHAR Ocircumflex
ENCODING 212
SWIDTH 928 0
DWIDTH 13 0
BBX 11 13 1 0
BITMAP
0E00
1B00
0000
1F00
71C0
60C0
C060
C060
C060
C060
60C0
71C0
1F00
ENDCHAR
STARTCHAR Ugrave
ENCODING 217
SWIDTH 785 0
DWIDTH 11 0
BBX 9 13 1 0
BITMAP
3000
1800
0000
C180
C180
C180
C180
C180
C180
C180
C180
6300
3E00
ENDCHAR
STARTCHAR Ucircumflex
ENCODING 219
SWIDTH 785 0
DWIDTH 11 0
BBX 9 13 1 0
BITMAP
1C00
3600
0000
C180
C180
C180
C180
C180
C180
C180
C180
6300
3E00
ENDCHAR
STARTCHAR Udieresis
ENCODING 220
SWIDTH 785 0
DWIDTH 11 0
BBX 9 13 1 0
BITMAP
3600
1200
0000
C180
C180
C180
C180
C180
C180
C180
C180
6300
3E00
ENDCHAR
STARTCHAR agrave
ENCODING 224
SWIDTH 642 0
DWIDTH 9 0
BBX 7 10 1 0
BITMAP
30
18
00
7C
06
3E
E6
C6
C6
7E
ENDCHAR
STARTCHAR acircumflex
ENCODING 226
SWIDTH 642 0
DWIDTH 9 0
BBX 7 10 1 0
BITMAP
38
6C
00
7C
06
3E
E6
C6
C6
7E
ENDCHAR
STARTCHAR ccedilla
ENCODING 231
SWIDTH 642 0
DWIDTH 9 0
BBX 7 10 1 -3
BITMAP
7C
C6
C0
C0
C0
C6
7C
38
08
38
ENDCHAR
STARTCHAR egrave
ENCODING 232
SWIDTH 642 0
DWIDTH 9 0
BBX 7 10 1 0
BITMAP
60
30
00
7C
C6
C6
FE
C0
C6
7C
ENDCHAR
STARTCHAR eacute
ENCODING 233
SWIDTH 642 0
DWIDTH 9 0
BBX 7 10 1 0
BITMAP
18
30
00
7C
C6
C6
FE
C0
C6
7C
ENDCHAR
STARTCHAR ecircumflex
ENCODING 234
SWIDTH 642 0
DWIDTH 9 0
BBX 7 10 1 0
BITMAP
38
6C
00
7C
C6
C6
FE
C0
C6
7C
ENDCHAR
STARTCHAR edieresis
ENCODING 235
SWIDTH 642 0
DWIDTH 9 0
BBX 7 10 1 0
BITMAP
6C
24
00
7C
C6
C6
FE
C0
C6
7C
ENDCHAR
STARTCHAR icircumflex
ENCODING 238
SWIDTH 428 0
DWIDTH 6 0
BBX 5 10 1 0
BITMAP
70
D8
00
60
60
60
60
60
60
60
ENDCHAR
STARTCHAR idieresis
ENCODING 239
SWIDTH 428 0
DWIDTH 6 0
BBX 5 10 0 0
BITMAP
D8
48
00
30
30
30
30
30
30
30
ENDCHAR
STARTCHAR ocircumflex
ENCODING 244
SWIDTH 642 0
DWIDTH 9 0
BBX 7 10 1 0
BITMAP
38
6C
00
7C
C6
C6
C6
C6
C6
7C
ENDCHAR
STARTCHAR ugrave
ENCODING 249
SWIDTH 642 0
DWIDTH 9 0
BBX 7 10 1 0
BITMAP
60
30
00
C6
C6
C6
C6
C6
CE
76
ENDCHAR
STARTCHAR ucircumflex
ENCODING 251
SWIDTH 642 0
DWIDTH 9 0
BBX 7 10 1 0
BITMAP
38
6C
00
C6
C6
C6
C6
C6
CE
76
ENDCHAR
STARTCHAR udieresis
ENCODING 252
SWIDTH 642 0
DWIDTH 9 0
BBX 7 10 1 0
BITMAP
6C
24
00
C6
C6
C6
C6
C6
CE
76
ENDCHAR
ENDFONT
